<svg version="1.1" xmlns="http://www.w3.org/2000/svg" xmlns:xlink="http://www.w3.org/1999/xlink" width="614.03076171875" height="471"><defs/><g><text fill="#eeeeee" stroke="none" font-family="Arial" font-size="24px" font-style="normal" font-weight="normal" text-decoration="none" x="0" y="0">UNREGISTERED</text><text fill="#eeeeee" stroke="none" font-family="Arial" font-size="24px" font-style="normal" font-weight="normal" text-decoration="none" x="0" y="30">UNREGISTERED</text><text fill="#eeeeee" stroke="none" font-family="Arial" font-size="24px" font-style="normal" font-weight="normal" text-decoration="none" x="0" y="60">UNREGISTERED</text><text fill="#eeeeee" stroke="none" font-family="Arial" font-size="24px" font-style="normal" font-weight="normal" text-decoration="none" x="0" y="90">UNREGISTERED</text><text fill="#eeeeee" stroke="none" font-family="Arial" font-size="24px" font-style="normal" font-weight="normal" text-decoration="none" x="0" y="120">UNREGISTERED</text><text fill="#eeeeee" stroke="none" font-family="Arial" font-size="24px" font-style="normal" font-weight="normal" text-decoration="none" x="0" y="150">UNREGISTERED</text><text fill="#eeeeee" stroke="none" font-family="Arial" font-size="24px" font-style="normal" font-weight="normal" text-decoration="none" x="0" y="180">UNREGISTERED</text><text fill="#eeeeee" stroke="none" font-family="Arial" font-size="24px" font-style="normal" font-weight="normal" text-decoration="none" x="0" y="210">UNREGISTERED</text><text fill="#eeeeee" stroke="none" font-family="Arial" font-size="24px" font-style="normal" font-weight="normal" text-decoration="none" x="0" y="240">UNREGISTERED</text><text fill="#eeeeee" stroke="none" font-family="Arial" font-size="24px" font-style="normal" font-weight="normal" text-decoration="none" x="0" y="270">UNREGISTERED</text><text fill="#eeeeee" stroke="none" font-family="Arial" font-size="24px" font-style="normal" font-weight="normal" text-decoration="none" x="0" y="300">UNREGISTERED</text><text fill="#eeeeee" stroke="none" font-family="Arial" font-size="24px" font-style="normal" font-weight="normal" text-decoration="none" x="0" y="330">UNREGISTERED</text><text fill="#eeeeee" stroke="none" font-family="Arial" font-size="24px" font-style="normal" font-weight="normal" text-decoration="none" x="0" y="360">UNREGISTERED</text><text fill="#eeeeee" stroke="none" font-family="Arial" font-size="24px" font-style="normal" font-weight="normal" text-decoration="none" x="0" y="390">UNREGISTERED</text><text fill="#eeeeee" stroke="none" font-family="Arial" font-size="24px" font-style="normal" font-weight="normal" text-decoration="none" x="0" y="420">UNREGISTERED</text><text fill="#eeeeee" stroke="none" font-family="Arial" font-size="24px" font-style="normal" font-weight="normal" text-decoration="none" x="0" y="450">UNREGISTERED</text><text fill="#eeeeee" stroke="none" font-family="Arial" font-size="24px" font-style="normal" font-weight="normal" text-decoration="none" x="200" y="0">UNREGISTERED</text><text fill="#eeeeee" stroke="none" font-family="Arial" font-size="24px" font-style="normal" font-weight="normal" text-decoration="none" x="200" y="30">UNREGISTERED</text><text fill="#eeeeee" stroke="none" font-family="Arial" font-size="24px" font-style="normal" font-weight="normal" text-decoration="none" x="200" y="60">UNREGISTERED</text><text fill="#eeeeee" stroke="none" font-family="Arial" font-size="24px" font-style="normal" font-weight="normal" text-decoration="none" x="200" y="90">UNREGISTERED</text><text fill="#eeeeee" stroke="none" font-family="Arial" font-size="24px" font-style="normal" font-weight="normal" text-decoration="none" x="200" y="120">UNREGISTERED</text><text fill="#eeeeee" stroke="none" font-family="Arial" font-size="24px" font-style="normal" font-weight="normal" text-decoration="none" x="200" y="150">UNREGISTERED</text><text fill="#eeeeee" stroke="none" font-family="Arial" font-size="24px" font-style="normal" font-weight="normal" text-decoration="none" x="200" y="180">UNREGISTERED</text><text fill="#eeeeee" stroke="none" font-family="Arial" font-size="24px" font-style="normal" font-weight="normal" text-decoration="none" x="200" y="210">UNREGISTERED</text><text fill="#eeeeee" stroke="none" font-family="Arial" font-size="24px" font-style="normal" font-weight="normal" text-decoration="none" x="200" y="240">UNREGISTERED</text><text fill="#eeeeee" stroke="none" font-family="Arial" font-size="24px" font-style="normal" font-weight="normal" text-decoration="none" x="200" y="270">UNREGISTERED</text><text fill="#eeeeee" stroke="none" font-family="Arial" font-size="24px" font-style="normal" font-weight="normal" text-decoration="none" x="200" y="300">UNREGISTERED</text><text fill="#eeeeee" stroke="none" font-family="Arial" font-size="24px" font-style="normal" font-weight="normal" text-decoration="none" x="200" y="330">UNREGISTERED</text><text fill="#eeeeee" stroke="none" font-family="Arial" font-size="24px" font-style="normal" font-weight="normal" text-decoration="none" x="200" y="360">UNREGISTERED</text><text fill="#eeeeee" stroke="none" font-family="Arial" font-size="24px" font-style="normal" font-weight="normal" text-decoration="none" x="200" y="390">UNREGISTERED</text><text fill="#eeeeee" stroke="none" font-family="Arial" font-size="24px" font-style="normal" font-weight="normal" text-decoration="none" x="200" y="420">UNREGISTERED</text><text fill="#eeeeee" stroke="none" font-family="Arial" font-size="24px" font-style="normal" font-weight="normal" text-decoration="none" x="200" y="450">UNREGISTERED</text><text fill="#eeeeee" stroke="none" font-family="Arial" font-size="24px" font-style="normal" font-weight="normal" text-decoration="none" x="400" y="0">UNREGISTERED</text><text fill="#eeeeee" stroke="none" font-family="Arial" font-size="24px" font-style="normal" font-weight="normal" text-decoration="none" x="400" y="30">UNREGISTERED</text><text fill="#eeeeee" stroke="none" font-family="Arial" font-size="24px" font-style="normal" font-weight="normal" text-decoration="none" x="400" y="60">UNREGISTERED</text><text fill="#eeeeee" stroke="none" font-family="Arial" font-size="24px" font-style="normal" font-weight="normal" text-decoration="none" x="400" y="90">UNREGISTERED</text><text fill="#eeeeee" stroke="none" font-family="Arial" font-size="24px" font-style="normal" font-weight="normal" text-decoration="none" x="400" y="120">UNREGISTERED</text><text fill="#eeeeee" stroke="none" font-family="Arial" font-size="24px" font-style="normal" font-weight="normal" text-decoration="none" x="400" y="150">UNREGISTERED</text><text fill="#eeeeee" stroke="none" font-family="Arial" font-size="24px" font-style="normal" font-weight="normal" text-decoration="none" x="400" y="180">UNREGISTERED</text><text fill="#eeeeee" stroke="none" font-family="Arial" font-size="24px" font-style="normal" font-weight="normal" text-decoration="none" x="400" y="210">UNREGISTERED</text><text fill="#eeeeee" stroke="none" font-family="Arial" font-size="24px" font-style="normal" font-weight="normal" text-decoration="none" x="400" y="240">UNREGISTERED</text><text fill="#eeeeee" stroke="none" font-family="Arial" font-size="24px" font-style="normal" font-weight="normal" text-decoration="none" x="400" y="270">UNREGISTERED</text><text fill="#eeeeee" stroke="none" font-family="Arial" font-size="24px" font-style="normal" font-weight="normal" text-decoration="none" x="400" y="300">UNREGISTERED</text><text fill="#eeeeee" stroke="none" font-family="Arial" font-size="24px" font-style="normal" font-weight="normal" text-decoration="none" x="400" y="330">UNREGISTERED</text><text fill="#eeeeee" stroke="none" font-family="Arial" font-size="24px" font-style="normal" font-weight="normal" text-decoration="none" x="400" y="360">UNREGISTERED</text><text fill="#eeeeee" stroke="none" font-family="Arial" font-size="24px" font-style="normal" font-weight="normal" text-decoration="none" x="400" y="390">UNREGISTERED</text><text fill="#eeeeee" stroke="none" font-family="Arial" font-size="24px" font-style="normal" font-weight="normal" text-decoration="none" x="400" y="420">UNREGISTERED</text><text fill="#eeeeee" stroke="none" font-family="Arial" font-size="24px" font-style="normal" font-weight="normal" text-decoration="none" x="400" y="450">UNREGISTERED</text><text fill="#eeeeee" stroke="none" font-family="Arial" font-size="24px" font-style="normal" font-weight="normal" text-decoration="none" x="600" y="0">UNREGISTERED</text><text fill="#eeeeee" stroke="none" font-family="Arial" font-size="24px" font-style="normal" font-weight="normal" text-decoration="none" x="600" y="30">UNREGISTERED</text><text fill="#eeeeee" stroke="none" font-family="Arial" font-size="24px" font-style="normal" font-weight="normal" text-decoration="none" x="600" y="60">UNREGISTERED</text><text fill="#eeeeee" stroke="none" font-family="Arial" font-size="24px" font-style="normal" font-weight="normal" text-decoration="none" x="600" y="90">UNREGISTERED</text><text fill="#eeeeee" stroke="none" font-family="Arial" font-size="24px" font-style="normal" font-weight="normal" text-decoration="none" x="600" y="120">UNREGISTERED</text><text fill="#eeeeee" stroke="none" font-family="Arial" font-size="24px" font-style="normal" font-weight="normal" text-decoration="none" x="600" y="150">UNREGISTERED</text><text fill="#eeeeee" stroke="none" font-family="Arial" font-size="24px" font-style="normal" font-weight="normal" text-decoration="none" x="600" y="180">UNREGISTERED</text><text fill="#eeeeee" stroke="none" font-family="Arial" font-size="24px" font-style="normal" font-weight="normal" text-decoration="none" x="600" y="210">UNREGISTERED</text><text fill="#eeeeee" stroke="none" font-family="Arial" font-size="24px" font-style="normal" font-weight="normal" text-decoration="none" x="600" y="240">UNREGISTERED</text><text fill="#eeeeee" stroke="none" font-family="Arial" font-size="24px" font-style="normal" font-weight="normal" text-decoration="none" x="600" y="270">UNREGISTERED</text><text fill="#eeeeee" stroke="none" font-family="Arial" font-size="24px" font-style="normal" font-weight="normal" text-decoration="none" x="600" y="300">UNREGISTERED</text><text fill="#eeeeee" stroke="none" font-family="Arial" font-size="24px" font-style="normal" font-weight="normal" text-decoration="none" x="600" y="330">UNREGISTERED</text><text fill="#eeeeee" stroke="none" font-family="Arial" font-size="24px" font-style="normal" font-weight="normal" text-decoration="none" x="600" y="360">UNREGISTERED</text><text fill="#eeeeee" stroke="none" font-family="Arial" font-size="24px" font-style="normal" font-weight="normal" text-decoration="none" x="600" y="390">UNREGISTERED</text><text fill="#eeeeee" stroke="none" font-family="Arial" font-size="24px" font-style="normal" font-weight="normal" text-decoration="none" x="600" y="420">UNREGISTERED</text><text fill="#eeeeee" stroke="none" font-family="Arial" font-size="24px" font-style="normal" font-weight="normal" text-decoration="none" x="600" y="450">UNREGISTERED</text><g transform="translate(-390,-262) scale(1,1)"><rect fill="#C0C0C0" stroke="none" x="407" y="311" width="89.57080078125" height="115" opacity="0.2"/></g><g transform="translate(-390,-262) scale(1,1)"><rect fill="#ffffff" stroke="none" x="400" y="304" width="89.57080078125" height="115"/></g><g transform="translate(-390,-262) scale(1,1)"><path fill="none" stroke="#000000" d="M 400 304 L 489.57080078125 304 L 489.57080078125 419 L 400 419 L 400 304 Z Z" stroke-miterlimit="10"/></g><g transform="translate(-390,-262) scale(1,1)"><path fill="none" stroke="#000000" d="M 400 329 L 489.57080078125 329" stroke-miterlimit="10"/></g><g transform="translate(-390,-262) scale(1,1)"><path fill="none" stroke="#000000" d="M 400 382 L 489.57080078125 382" stroke-miterlimit="10"/></g><g transform="translate(-390,-262) scale(1,1)"><g><path fill="none" stroke="none"/><text fill="#000000" stroke="none" font-family="Arial" font-size="13px" font-style="normal" font-weight="bold" text-decoration="none" x="430.331787109375" y="322">User</text></g></g><g transform="translate(-390,-262) scale(1,1)"><g><path fill="none" stroke="none"/><text fill="#000000" stroke="none" font-family="Arial" font-size="13px" font-style="normal" font-weight="normal" text-decoration="none" x="405" y="345">+id</text></g></g><g transform="translate(-390,-262) scale(1,1)"><g><path fill="none" stroke="none"/><text fill="#000000" stroke="none" font-family="Arial" font-size="13px" font-style="normal" font-weight="normal" text-decoration="none" x="405" y="359">+username</text></g></g><g transform="translate(-390,-262) scale(1,1)"><g><path fill="none" stroke="none"/><text fill="#000000" stroke="none" font-family="Arial" font-size="13px" font-style="normal" font-weight="normal" text-decoration="none" x="405" y="375">+password</text></g></g><g transform="translate(-390,-262) scale(1,1)"><g><path fill="none" stroke="none"/><text fill="#000000" stroke="none" font-family="Arial" font-size="13px" font-style="normal" font-weight="normal" text-decoration="none" x="405" y="398">+login()</text></g></g><g transform="translate(-390,-262) scale(1,1)"><g><path fill="none" stroke="none"/><text fill="#000000" stroke="none" font-family="Arial" font-size="13px" font-style="normal" font-weight="normal" text-decoration="none" x="405" y="413">+logout()</text></g></g><g transform="translate(-390,-262) scale(1,1)"><rect fill="#C0C0C0" stroke="none" x="655" y="439" width="107.642578125" height="130" opacity="0.2"/></g><g transform="translate(-390,-262) scale(1,1)"><rect fill="#ffffff" stroke="none" x="648" y="432" width="107.642578125" height="130"/></g><g transform="translate(-390,-262) scale(1,1)"><path fill="none" stroke="#000000" d="M 648 432 L 755.642578125 432 L 755.642578125 562 L 648 562 L 648 432 Z Z" stroke-miterlimit="10"/></g><g transform="translate(-390,-262) scale(1,1)"><path fill="none" stroke="#000000" d="M 648 457 L 755.642578125 457" stroke-miterlimit="10"/></g><g transform="translate(-390,-262) scale(1,1)"><path fill="none" stroke="#000000" d="M 648 525 L 755.642578125 525" stroke-miterlimit="10"/></g><g transform="translate(-390,-262) scale(1,1)"><g><path fill="none" stroke="none"/><text fill="#000000" stroke="none" font-family="Arial" font-size="13px" font-style="normal" font-weight="bold" text-decoration="none" x="671.114501953125" y="450">Employee</text></g></g><g transform="translate(-390,-262) scale(1,1)"><g><path fill="none" stroke="none"/><text fill="#000000" stroke="none" font-family="Arial" font-size="13px" font-style="normal" font-weight="normal" text-decoration="none" x="653" y="473">+id</text></g></g><g transform="translate(-390,-262) scale(1,1)"><g><path fill="none" stroke="none"/><text fill="#000000" stroke="none" font-family="Arial" font-size="13px" font-style="normal" font-weight="normal" text-decoration="none" x="653" y="487">+nume</text></g></g><g transform="translate(-390,-262) scale(1,1)"><g><path fill="none" stroke="none"/><text fill="#000000" stroke="none" font-family="Arial" font-size="13px" font-style="normal" font-weight="normal" text-decoration="none" x="653" y="503">+functie</text></g></g><g transform="translate(-390,-262) scale(1,1)"><g><path fill="none" stroke="none"/><text fill="#000000" stroke="none" font-family="Arial" font-size="13px" font-style="normal" font-weight="normal" text-decoration="none" x="653" y="518">+salariuPeZi</text></g></g><g transform="translate(-390,-262) scale(1,1)"><g><path fill="none" stroke="none"/><text fill="#000000" stroke="none" font-family="Arial" font-size="13px" font-style="normal" font-weight="normal" text-decoration="none" x="653" y="541">+getDetalii()</text></g></g><g transform="translate(-390,-262) scale(1,1)"><g><path fill="none" stroke="none"/><text fill="#000000" stroke="none" font-family="Arial" font-size="13px" font-style="normal" font-weight="normal" text-decoration="none" x="653" y="556">+updateFunctie()</text></g></g><g transform="translate(-390,-262) scale(1,1)"><rect fill="#C0C0C0" stroke="none" x="439" y="519" width="124.95263671875" height="130" opacity="0.2"/></g><g transform="translate(-390,-262) scale(1,1)"><rect fill="#ffffff" stroke="none" x="432" y="512" width="124.95263671875" height="130"/></g><g transform="translate(-390,-262) scale(1,1)"><path fill="none" stroke="#000000" d="M 432 512 L 556.95263671875 512 L 556.95263671875 642 L 432 642 L 432 512 Z Z" stroke-miterlimit="10"/></g><g transform="translate(-390,-262) scale(1,1)"><path fill="none" stroke="#000000" d="M 432 537 L 556.95263671875 537" stroke-miterlimit="10"/></g><g transform="translate(-390,-262) scale(1,1)"><path fill="none" stroke="#000000" d="M 432 575 L 556.95263671875 575" stroke-miterlimit="10"/></g><g transform="translate(-390,-262) scale(1,1)"><g><path fill="none" stroke="none"/><text fill="#000000" stroke="none" font-family="Arial" font-size="13px" font-style="normal" font-weight="bold" text-decoration="none" x="467.746337890625" y="530">Manager</text></g></g><g transform="translate(-390,-262) scale(1,1)"><g><path fill="none" stroke="none"/><text fill="#000000" stroke="none" font-family="Arial" font-size="13px" font-style="normal" font-weight="normal" text-decoration="none" x="437" y="552">+nume</text></g></g><g transform="translate(-390,-262) scale(1,1)"><g><path fill="none" stroke="none"/><text fill="#000000" stroke="none" font-family="Arial" font-size="13px" font-style="normal" font-weight="normal" text-decoration="none" x="437" y="568">+email</text></g></g><g transform="translate(-390,-262) scale(1,1)"><g><path fill="none" stroke="none"/><text fill="#000000" stroke="none" font-family="Arial" font-size="13px" font-style="normal" font-weight="normal" text-decoration="none" x="437" y="591">+importData()</text></g></g><g transform="translate(-390,-262) scale(1,1)"><g><path fill="none" stroke="none"/><text fill="#000000" stroke="none" font-family="Arial" font-size="13px" font-style="normal" font-weight="normal" text-decoration="none" x="437" y="606">+modificaSalariuZi()</text></g></g><g transform="translate(-390,-262) scale(1,1)"><g><path fill="none" stroke="none"/><text fill="#000000" stroke="none" font-family="Arial" font-size="13px" font-style="normal" font-weight="normal" text-decoration="none" x="437" y="621">+acordaBonus()</text></g></g><g transform="translate(-390,-262) scale(1,1)"><g><path fill="none" stroke="none"/><text fill="#000000" stroke="none" font-family="Arial" font-size="13px" font-style="normal" font-weight="normal" text-decoration="none" x="437" y="636">+aplicaPenalizare()</text></g></g><g transform="translate(-390,-262) scale(1,1)"><rect fill="#C0C0C0" stroke="none" x="815" y="279" width="137.2607421875" height="130" opacity="0.2"/></g><g transform="translate(-390,-262) scale(1,1)"><rect fill="#ffffff" stroke="none" x="808" y="272" width="137.2607421875" height="130"/></g><g transform="translate(-390,-262) scale(1,1)"><path fill="none" stroke="#000000" d="M 808 272 L 945.2607421875 272 L 945.2607421875 402 L 808 402 L 808 272 Z Z" stroke-miterlimit="10"/></g><g transform="translate(-390,-262) scale(1,1)"><path fill="none" stroke="#000000" d="M 808 297 L 945.2607421875 297" stroke-miterlimit="10"/></g><g transform="translate(-390,-262) scale(1,1)"><path fill="none" stroke="#000000" d="M 808 350 L 945.2607421875 350" stroke-miterlimit="10"/></g><g transform="translate(-390,-262) scale(1,1)"><g><path fill="none" stroke="none"/><text fill="#000000" stroke="none" font-family="Arial" font-size="13px" font-style="normal" font-weight="bold" text-decoration="none" x="841.23583984375" y="290">Attendance</text></g></g><g transform="translate(-390,-262) scale(1,1)"><g><path fill="none" stroke="none"/><text fill="#000000" stroke="none" font-family="Arial" font-size="13px" font-style="normal" font-weight="normal" text-decoration="none" x="813" y="313">+lunaCurenta</text></g></g><g transform="translate(-390,-262) scale(1,1)"><g><path fill="none" stroke="none"/><text fill="#000000" stroke="none" font-family="Arial" font-size="13px" font-style="normal" font-weight="normal" text-decoration="none" x="813" y="328">+zileLucratoareLuna</text></g></g><g transform="translate(-390,-262) scale(1,1)"><g><path fill="none" stroke="none"/><text fill="#000000" stroke="none" font-family="Arial" font-size="13px" font-style="normal" font-weight="normal" text-decoration="none" x="813" y="343">+zileAbsente</text></g></g><g transform="translate(-390,-262) scale(1,1)"><g><path fill="none" stroke="none"/><text fill="#000000" stroke="none" font-family="Arial" font-size="13px" font-style="normal" font-weight="normal" text-decoration="none" x="813" y="366">+marcheazaAbsenta()</text></g></g><g transform="translate(-390,-262) scale(1,1)"><g><path fill="none" stroke="none"/><text fill="#000000" stroke="none" font-family="Arial" font-size="13px" font-style="normal" font-weight="normal" text-decoration="none" x="813" y="381">+stergeAbsenta()</text></g></g><g transform="translate(-390,-262) scale(1,1)"><g><path fill="none" stroke="none"/><text fill="#000000" stroke="none" font-family="Arial" font-size="13px" font-style="normal" font-weight="normal" text-decoration="none" x="813" y="396">+getNrZileLucrate()</text></g></g><g transform="translate(-390,-262) scale(1,1)"><rect fill="#C0C0C0" stroke="none" x="871" y="615" width="130.03076171875" height="115" opacity="0.2"/></g><g transform="translate(-390,-262) scale(1,1)"><rect fill="#ffffff" stroke="none" x="864" y="608" width="130.03076171875" height="115"/></g><g transform="translate(-390,-262) scale(1,1)"><path fill="none" stroke="#000000" d="M 864 608 L 994.03076171875 608 L 994.03076171875 723 L 864 723 L 864 608 Z Z" stroke-miterlimit="10"/></g><g transform="translate(-390,-262) scale(1,1)"><path fill="none" stroke="#000000" d="M 864 633 L 994.03076171875 633" stroke-miterlimit="10"/></g><g transform="translate(-390,-262) scale(1,1)"><path fill="none" stroke="#000000" d="M 864 686 L 994.03076171875 686" stroke-miterlimit="10"/></g><g transform="translate(-390,-262) scale(1,1)"><g><path fill="none" stroke="none"/><text fill="#000000" stroke="none" font-family="Arial" font-size="13px" font-style="normal" font-weight="bold" text-decoration="none" x="907.338134765625" y="626">Payroll</text></g></g><g transform="translate(-390,-262) scale(1,1)"><g><path fill="none" stroke="none"/><text fill="#000000" stroke="none" font-family="Arial" font-size="13px" font-style="normal" font-weight="normal" text-decoration="none" x="869" y="649">+bonusuri</text></g></g><g transform="translate(-390,-262) scale(1,1)"><g><path fill="none" stroke="none"/><text fill="#000000" stroke="none" font-family="Arial" font-size="13px" font-style="normal" font-weight="normal" text-decoration="none" x="869" y="664">+penalizari</text></g></g><g transform="translate(-390,-262) scale(1,1)"><g><path fill="none" stroke="none"/><text fill="#000000" stroke="none" font-family="Arial" font-size="13px" font-style="normal" font-weight="normal" text-decoration="none" x="869" y="679">+salariuFinalCalculat</text></g></g><g transform="translate(-390,-262) scale(1,1)"><g><path fill="none" stroke="none"/><text fill="#000000" stroke="none" font-family="Arial" font-size="13px" font-style="normal" font-weight="normal" text-decoration="none" x="869" y="702">+calculareSalariu()</text></g></g><g transform="translate(-390,-262) scale(1,1)"><g><path fill="none" stroke="none"/><text fill="#000000" stroke="none" font-family="Arial" font-size="13px" font-style="normal" font-weight="normal" text-decoration="none" x="869" y="717">+resetLunar()</text></g></g><g transform="translate(-390,-262) scale(1,1)"><path fill="none" stroke="#000000" d="M 479 511 L 458 420" stroke-miterlimit="10"/></g><g transform="translate(-390,-262) scale(1,1)"><path fill="#FFFFFF" stroke="none" d="M 470.7737821896148 437.91174163983726 L 458 420 L 454.36691403128617 441.6979419840669"/></g><g transform="translate(-390,-262) scale(1,1)"><path fill="none" stroke="#000000" d="M 470.7737821896148 437.91174163983726 L 458 420 L 454.36691403128617 441.6979419840669 L 470.7737821896148 437.91174163983726" stroke-miterlimit="10"/></g><g transform="translate(-390,-262) scale(1,1)"><path fill="none" stroke="#000000" d="M 757 446 L 807 400" stroke-miterlimit="10"/></g><g transform="translate(-390,-262) scale(1,1)"><path fill="#000000" stroke="none" d="M 802.3710538981393 409.9786200441779 L 807 400 L 796.670890921505 403.7827907217494 L 790.8095177412398 414.89524367805944"/></g><g transform="translate(-390,-262) scale(1,1)"><path fill="none" stroke="#000000" d="M 802.3710538981393 409.9786200441779 L 807 400 L 796.670890921505 403.7827907217494 L 790.8095177412398 414.89524367805944 L 802.3710538981393 409.9786200441779" stroke-miterlimit="10"/></g><g transform="translate(-390,-262) scale(1,1)"><path fill="none" stroke="#000000" d="M 757 538 L 863 616" stroke-miterlimit="10"/></g><g transform="translate(-390,-262) scale(1,1)"><path fill="#000000" stroke="none" d="M 852.31969994043 613.3672845505921 L 863 616 L 857.3094983499819 606.5862764555601 L 845.2803719170086 602.961028391761"/></g><g transform="translate(-390,-262) scale(1,1)"><path fill="none" stroke="#000000" d="M 852.31969994043 613.3672845505921 L 863 616 L 857.3094983499819 606.5862764555601 L 845.2803719170086 602.961028391761 L 852.31969994043 613.3672845505921" stroke-miterlimit="10"/></g><g transform="translate(-390,-262) scale(1,1)"><path fill="none" stroke="#000000" d="M 558 552 L 647 518" stroke-miterlimit="10"/></g><g transform="translate(-390,-262) scale(1,1)"><path fill="none" stroke="#000000" d="M 639.0087314114076 525.5590757599707 L 647 518 L 636.0042460613452 517.6943935201014" stroke-miterlimit="10"/></g></g></svg>